<svg width="32" height="32" viewBox="0 0 32 32" fill="none" xmlns="http://www.w3.org/2000/svg">
<path fill-rule="evenodd" clip-rule="evenodd" d="M8 12.3333C8 8.13145 11.9707 5 16.5 5C21.0293 5 25 8.13145 25 12.3333C25 16.7734 22.2401 21.2469 17.1634 25.7482C16.7848 26.0839 16.2152 26.0839 15.8366 25.7482C10.7599 21.2469 8 16.7734 8 12.3333ZM16.5 7C12.745 7 10 9.53961 10 12.3333C10 15.7504 12.0385 19.5214 16.5 23.6509C20.9615 19.5214 23 15.7504 23 12.3333C23 9.53961 20.255 7 16.5 7Z" fill="white"/>
<path fill-rule="evenodd" clip-rule="evenodd" d="M16.3333 13C16.1492 13 16 13.1492 16 13.3333C16 13.5174 16.1492 13.6667 16.3333 13.6667C16.5174 13.6667 16.6667 13.5174 16.6667 13.3333C16.6667 13.1492 16.5174 13 16.3333 13ZM14 13.3333C14 12.0447 15.0447 11 16.3333 11C17.622 11 18.6667 12.0447 18.6667 13.3333C18.6667 14.622 17.622 15.6667 16.3333 15.6667C15.0447 15.6667 14 14.622 14 13.3333Z" fill="white"/>
</svg>
