<svg width="136" height="261" viewBox="0 0 136 261" fill="none" xmlns="http://www.w3.org/2000/svg">
<path fill-rule="evenodd" clip-rule="evenodd" d="M127.291 230.686C133.097 220.986 136 210.174 136 198.251C136 184.711 132.315 172.686 124.946 162.178C117.576 151.871 107.415 141.564 94.4631 131.258C107.415 120.951 117.576 110.543 124.946 100.035C132.315 89.7281 136 77.8048 136 64.2647C136 46.0766 129.635 30.8188 116.906 18.4913C104.177 6.16377 87.8752 0 68 0C48.5714 0 32.381 6.16377 19.4286 18.4913C6.4762 30.8188 0 46.0766 0 64.2647C0 78.0069 3.68472 90.0312 11.0542 100.338C18.4237 110.644 28.5846 120.951 41.5369 131.258C28.5846 141.564 18.4237 151.871 11.0542 162.178C3.68472 172.686 0 184.711 0 198.251C0 216.439 6.36453 231.697 19.0936 244.024C28.1787 252.823 39.0841 258.481 51.8095 261V219.874C50.0143 218.838 48.3766 217.591 46.8965 216.136C41.7603 211.285 39.1921 204.617 39.1921 196.129C39.1921 188.045 41.6486 180.568 46.5616 173.697C51.4746 166.826 58.6207 159.55 68 151.871C77.6026 159.955 84.7488 167.23 89.4384 173.697C94.3514 180.366 96.8079 187.843 96.8079 196.129C96.8079 201.787 95.5796 206.738 93.1231 210.982C91.0801 214.865 88.1026 217.817 84.1905 219.839V260.841C90.8318 259.4 97.0474 257.028 102.837 253.724C113.333 248.066 121.484 240.386 127.291 230.686ZM46.5616 89.425C41.6486 82.5539 39.1921 75.0766 39.1921 66.993C39.1921 58.3031 41.7603 51.432 46.8965 46.3798C52.2561 41.3275 59.2906 38.8013 68 38.8013C76.7094 38.8013 83.6322 41.3275 88.7685 46.3798C94.1281 51.432 96.8079 58.3031 96.8079 66.993C96.8079 74.8745 94.3514 82.2508 89.4384 89.1218C84.5254 96.195 77.3793 103.47 68 110.948C58.844 103.47 51.6979 96.2961 46.5616 89.425Z" fill="url(#paint0_linear_10329_57977)"/>
<defs>
<linearGradient id="paint0_linear_10329_57977" x1="67.9999" y1="1.21539e-07" x2="67.9999" y2="130.5" gradientUnits="userSpaceOnUse">
<stop stop-color="#6C27FF"/>
<stop offset="0.76" stop-color="#5300FF" stop-opacity="0"/>
</linearGradient>
</defs>
</svg>
