<svg width="82" height="16" viewBox="0 0 82 16" fill="none" xmlns="http://www.w3.org/2000/svg">
<path d="M5.04012 3.09677C6.42972 3.09677 7.58012 3.56129 8.49133 4.49032C9.41393 5.41935 9.87523 6.58925 9.87523 8C9.87523 9.41075 9.41393 10.5864 8.49133 11.5269C7.56873 12.4559 6.41833 12.9204 5.04012 12.9204C4.09475 12.9204 3.24618 12.6624 2.49443 12.1462V16H0V3.35484H1.65726L2.08439 4.19785C2.90448 3.4638 3.88972 3.09677 5.04012 3.09677ZM3.02408 9.82366C3.50246 10.3054 4.10044 10.5462 4.81802 10.5462C5.54698 10.5462 6.15066 10.3054 6.62905 9.82366C7.10743 9.34193 7.34662 8.73405 7.34662 8C7.34662 7.51828 7.23842 7.08244 7.02201 6.69247C6.80559 6.30251 6.50375 5.99857 6.11649 5.78064C5.74062 5.56272 5.31349 5.45376 4.8351 5.45376C4.35672 5.45376 3.92389 5.56272 3.53663 5.78064C3.14937 5.99857 2.84753 6.30251 2.63112 6.69247C2.42609 7.08244 2.32358 7.51828 2.32358 8C2.32358 8.73405 2.55708 9.34193 3.02408 9.82366Z" fill="white"/>
<path d="M16.3615 3.30323H17.1815V5.67742H16.1052C15.399 5.67742 14.8921 5.84373 14.5846 6.17634C14.2885 6.50896 14.1404 7.05376 14.1404 7.81075V12.6452H11.6459V3.35484H13.252L13.6962 4.49032C14.3226 3.69892 15.2111 3.30323 16.3615 3.30323Z" fill="white"/>
<path d="M43.7802 12.9032C42.8348 12.9032 41.9806 12.691 41.2174 12.2667C40.4543 11.8423 39.8563 11.2573 39.4235 10.5118C39.0021 9.75484 38.7913 8.91756 38.7913 8C38.7913 6.58925 39.264 5.41935 40.2094 4.49032C41.1548 3.56129 42.3451 3.09677 43.7802 3.09677C45.204 3.09677 46.3885 3.56129 47.3339 4.49032C48.2793 5.41935 48.752 6.58925 48.752 8C48.752 9.39928 48.2736 10.5692 47.3168 11.5097C46.3715 12.4387 45.1926 12.9032 43.7802 12.9032ZM43.7802 10.5462C44.4978 10.5462 45.0844 10.3111 45.54 9.84086C45.9956 9.35914 46.2234 8.74552 46.2234 8C46.2234 7.25448 45.9956 6.64659 45.54 6.17634C45.0844 5.69462 44.4921 5.45376 43.7631 5.45376C43.0455 5.45376 42.459 5.69462 42.0034 6.17634C41.5478 6.64659 41.3199 7.25448 41.3199 8C41.3199 8.36703 41.3769 8.71111 41.4908 9.03226C41.6161 9.3534 41.7869 9.62294 42.0034 9.84086C42.2198 10.0588 42.476 10.2308 42.7722 10.357C43.0797 10.4832 43.4157 10.5462 43.7802 10.5462Z" fill="white"/>
<path d="M50.5514 12.6452V0H53.0458V12.6452H50.5514Z" fill="white"/>
<path d="M55.44 12.6452V0H57.9345V12.6452H55.44Z" fill="white"/>
<path d="M67.8632 3.33763H69.7255V12.628H67.7607L67.5557 11.8021C66.7128 12.5362 65.7162 12.9032 64.5658 12.9032C63.1762 12.9032 62.0201 12.4387 61.0975 11.5097C60.1863 10.5692 59.7307 9.39355 59.7307 7.98279C59.7307 6.58351 60.1863 5.41935 61.0975 4.49032C62.0201 3.56129 63.1762 3.09677 64.5658 3.09677C65.739 3.09677 66.747 3.47527 67.5899 4.23226L67.8632 3.33763ZM62.9598 9.80645C63.4382 10.2882 64.0361 10.529 64.7537 10.529C65.4827 10.529 66.0864 10.2882 66.5648 9.80645C67.0431 9.32473 67.2823 8.71684 67.2823 7.98279C67.2823 7.24874 67.0431 6.64086 66.5648 6.15914C66.0864 5.67742 65.4884 5.43656 64.7708 5.43656C64.2924 5.43656 63.8596 5.55125 63.4723 5.78064C63.0965 5.99857 62.8003 6.30251 62.5839 6.69247C62.3675 7.07097 62.2593 7.50107 62.2593 7.98279C62.2593 8.71684 62.4928 9.32473 62.9598 9.80645Z" fill="white"/>
<path d="M77.1478 3.09677C78.5488 3.09677 79.7049 3.56129 80.6161 4.49032C81.5387 5.41935 82 6.58925 82 8C82 9.41075 81.5387 10.5806 80.6161 11.5097C79.7049 12.4387 78.5488 12.9032 77.1478 12.9032C76.043 12.9032 75.0805 12.5591 74.2604 11.871L73.97 12.6452H72.1248V0H74.6192V3.85376C75.3596 3.3491 76.2024 3.09677 77.1478 3.09677ZM75.1488 9.80645C75.6272 10.2882 76.2252 10.529 76.9428 10.529C77.6718 10.529 78.2697 10.2882 78.7367 9.80645C79.2151 9.32473 79.4543 8.72258 79.4543 8C79.4543 7.51828 79.3461 7.08244 79.1297 6.69247C78.9247 6.30251 78.6285 5.99857 78.2413 5.78064C77.854 5.56272 77.4212 5.45376 76.9428 5.45376C76.4758 5.45376 76.0487 5.56272 75.6614 5.78064C75.2741 5.99857 74.9723 6.30251 74.7559 6.69247C74.5395 7.08244 74.4313 7.51828 74.4313 8C74.4313 8.72258 74.6705 9.32473 75.1488 9.80645Z" fill="white"/>
<path fill-rule="evenodd" clip-rule="evenodd" d="M35.0271 3.61672C34.3444 3.21274 33.5836 3.01075 32.7446 3.01075C31.7918 3.01075 30.9456 3.26712 30.2061 3.77986C29.4808 4.2926 28.7556 4.99956 28.0303 5.90074C27.305 4.99956 26.5726 4.2926 25.8331 3.77986C25.1078 3.26712 24.2688 3.01075 23.316 3.01075C22.0361 3.01075 20.9624 3.45357 20.0949 4.33921C19.2274 5.22485 18.7937 6.35909 18.7937 7.74194C18.7937 9.0937 19.2274 10.2202 20.0949 11.1214C20.9624 12.0225 22.0361 12.4731 23.316 12.4731C24.283 12.4731 25.1292 12.2167 25.8545 11.704C26.5797 11.1913 27.305 10.4843 28.0303 9.58313C28.7556 10.4843 29.4808 11.1913 30.2061 11.704C30.9456 12.2167 31.7918 12.4731 32.7446 12.4731C34.0245 12.4731 35.0982 12.0303 35.9656 11.1447C36.5848 10.5125 36.983 9.7538 37.1602 8.86841H34.2662C34.1933 8.99332 34.1056 9.10726 34.0031 9.21023C33.6618 9.5676 33.1925 9.74628 32.5953 9.74628C32.0264 9.74628 31.5002 9.57536 31.0167 9.23354C30.5332 8.89171 30.0212 8.39451 29.4808 7.74194C30.0497 7.07382 30.5616 6.57662 31.0167 6.25033C31.486 5.90851 32.0122 5.73759 32.5953 5.73759C32.9934 5.73759 33.3419 5.82305 33.6405 5.99396C33.9137 6.13611 34.1215 6.34327 34.2638 6.61546H37.1491C37.0477 6.15339 36.8807 5.72092 36.6483 5.31808C36.2501 4.58781 35.7097 4.02069 35.0271 3.61672ZM25.0865 9.23354C24.603 9.57536 24.0768 9.74628 23.508 9.74628C22.8965 9.74628 22.413 9.5676 22.0574 9.21023C21.7019 8.83733 21.5241 8.3479 21.5241 7.74194C21.5241 7.13597 21.7019 6.65431 22.0574 6.29694C22.413 5.92404 22.8965 5.73759 23.508 5.73759C24.0626 5.73759 24.5817 5.90851 25.0652 6.25033C25.5629 6.59216 26.0749 7.08936 26.6011 7.74194C26.0749 8.37898 25.57 8.87618 25.0865 9.23354Z" fill="url(#paint0_linear_10329_57971)"/>
<defs>
<linearGradient id="paint0_linear_10329_57971" x1="3.81842e-08" y1="8.00001" x2="41" y2="8.00001" gradientUnits="userSpaceOnUse">
<stop stop-color="white"/>
<stop offset="1" stop-color="#6C27FF"/>
</linearGradient>
</defs>
</svg>
